<svg width="120" height="113" fill="none" xmlns="http://www.w3.org/2000/svg"><path d="M54.568 113c22.412 0 40.58-18.223 40.58-40.702 0-22.48-18.168-40.703-40.58-40.703s-40.58 18.223-40.58 40.703c0 22.479 18.168 40.702 40.58 40.702zM68.58 1.814L66.24 19.867l18.423 2.404 2.342-18.053L68.58 1.814z" fill="#E1DFDD"/><path d="M68.553 1.808l-.484 3.734 18.423 2.404.484-3.734-18.423-2.404z" fill="#EE8F94"/><path d="M82.651 5.477c-.332-.048-.618-.381-.57-.715l.285-2.335c.048-.334.38-.62.713-.572.332.048.618.381.57.715l-.285 2.335c-.048.381-.333.62-.713.572zM79.23 5.048c-.333-.047-.618-.381-.57-.715l.285-2.335c.047-.334.38-.62.713-.572.332.048.617.381.57.715l-.285 2.335c0 .382-.333.62-.713.572zM75.856 4.62c-.332-.048-.618-.382-.57-.716l.285-2.335c.047-.334.38-.62.713-.572.332.048.617.381.57.715l-.285 2.335a.638.638 0 01-.713.572zM72.435 4.143c-.333-.048-.618-.382-.57-.715l.285-2.336c.047-.333.38-.62.712-.572.333.048.618.382.57.715l-.284 2.336a.638.638 0 01-.713.572z" fill="#C8C6C4"/><path d="M83.554 3.761l-.143 1.192c-.047.334-.38.62-.712.572-.333-.048-.618-.381-.57-.715l.142-1.192 1.283.143zM80.133 3.285l-.143 1.191c-.047.334-.38.62-.713.572-.332-.047-.617-.381-.57-.715l.143-1.191 1.283.143zM76.711 2.856l-.142 1.191c-.048.334-.38.62-.713.572-.332-.047-.618-.381-.57-.715l.142-1.191 1.283.143zM73.29 2.427l-.142 1.191c-.048.334-.38.62-.713.572-.333-.047-.618-.381-.57-.715l.142-1.191 1.283.143z" fill="#E3646A"/><path d="M22.066 12.674c0 2.717.665 5.338 3.041 8.15.57.667.95 1.43.95 2.288v2.907l1.379-2.43c.237-.43.57-.906 1.235-.811 2.186.334 4.134.81 6.32.81 8.41 0 14.255-4.194 14.255-10.152 0-3.717-1.71-11.962-16.536-11.247-6.985.333-10.644 5.147-10.644 10.485z" fill="#E1DFDD"/><path d="M71.484 17.917c0 2.335-1.092 4.48-2.898 6.243a3.817 3.817 0 00-1.093 1.764l-1.33 4.575-.57-2.574a1.225 1.225 0 00-1.664-.905c-1.9.762-4.134 1.144-6.462 1.144-6.368 0-11.737-3.146-13.4-7.435 3.373-1.764 5.37-4.671 5.37-8.15 0-.81-.096-1.764-.333-2.86 2.328-1.287 5.227-2.05 8.363-2.05 7.793 0 14.017 4.576 14.017 10.248z" fill="#CDCCCB"/><path d="M49.199 9.719c.285 1.048.332 2.05.332 2.86 0 3.479-1.995 6.338-5.37 8.15a8.185 8.185 0 01-.522-2.812c0-3.384 2.186-6.34 5.56-8.198z" fill="#E1DFDD"/><path d="M49.199 9.719c-3.374 1.859-5.56 4.814-5.56 8.198 0 .953.19 1.906.523 2.812-2.376 1.286-5.417 2.001-8.886 2.001-2.186 0-4.134-.476-6.32-.81-.665-.095-.998.43-1.235.81l-1.378 2.431v-2.907c0-.858-.38-1.62-.95-2.288-2.33-2.812-3.042-5.386-3.042-8.15 0-5.338 3.659-10.152 10.692-10.485C44.685.759 48.248 5.763 49.199 9.719z" fill="#FAF9F8"/><path d="M53.57 19.108a1.19 1.19 0 001.188-1.191 1.19 1.19 0 00-1.188-1.192 1.19 1.19 0 00-1.188 1.192 1.19 1.19 0 001.188 1.191zM58.512 19.013A1.19 1.19 0 0059.7 17.82a1.19 1.19 0 00-1.188-1.191 1.19 1.19 0 00-1.188 1.191 1.19 1.19 0 001.188 1.192zM63.169 19.108a1.19 1.19 0 001.188-1.191 1.19 1.19 0 00-1.188-1.192 1.19 1.19 0 00-1.188 1.192 1.19 1.19 0 001.188 1.191z" fill="#F9F8F6"/><path d="M38.127 10.72h-8.696V8.956h8.744v1.764h-.048zM40.645 14.962H29.431v-1.764h11.214v1.764z" fill="#E1DFDD"/><path d="M117.102 64.005a.618.618 0 01-.571-.382s-.19-.476-.57-1.191c-.142-.286-.047-.667.238-.81.285-.143.665-.048.808.238.427.763.617 1.287.617 1.287.143.286 0 .667-.332.81-.048.048-.143.048-.19.048zM73.718 61.812h-.523c-.38 0-.76-.047-1.14-.095-.333-.048-.57-.334-.523-.667.048-.334.333-.572.665-.525.333.048.713.048 1.093.096h.475c.38 0 .713 0 1.093-.048.333-.048.618.19.665.524.048.334-.19.62-.522.668-.475.047-.856.047-1.283.047zm3.896-.572c-.237 0-.522-.19-.57-.429a.612.612 0 01.428-.762 16.708 16.708 0 002.518-.953c.285-.143.665 0 .808.286.142.285 0 .667-.285.81-.95.429-1.806.762-2.661 1-.143.048-.19.048-.238.048zm-8.22 0h-.143c-.903-.238-1.806-.572-2.708-.953a.614.614 0 01-.285-.81.61.61 0 01.807-.286c.808.381 1.663.667 2.519.905a.612.612 0 01.427.763c-.142.19-.38.381-.617.381zm45.617-.905a.522.522 0 01-.475-.286c-.523-.763-1.093-1.525-1.664-2.145-.237-.238-.19-.62.048-.858s.618-.19.855.048c.618.667 1.188 1.43 1.758 2.288.191.285.095.667-.142.857-.143.096-.238.096-.38.096zm-32.312-1.287c-.238 0-.428-.095-.523-.334-.143-.286-.047-.667.238-.81.76-.429 1.568-.858 2.376-1.287l.047-.047c.285-.143.665-.048.808.238.142.286.047.667-.238.81l-.047.048c-.76.429-1.616.905-2.376 1.334-.095 0-.19.048-.285.048zm-18.39-.095a.879.879 0 01-.332-.096c-.76-.476-1.52-1-2.329-1.62-.285-.19-.332-.572-.095-.858.19-.286.57-.334.856-.095.76.572 1.473 1.096 2.233 1.572.285.191.38.525.19.81-.142.191-.333.287-.523.287zm23.284-2.622c-.238 0-.428-.095-.523-.333-.142-.286-.047-.668.238-.81a40.092 40.092 0 012.518-1.24c.286-.143.666 0 .808.286.143.286 0 .667-.285.81-.76.334-1.568.763-2.47 1.24-.096.047-.19.047-.286.047zm23.711-.095a.54.54 0 01-.38-.143 10.147 10.147 0 00-2.233-1.382.614.614 0 01-.285-.81.61.61 0 01.808-.286c.855.38 1.663.905 2.471 1.525.237.19.285.572.095.858a.586.586 0 01-.476.238zm-51.414-.667a.539.539 0 01-.38-.143 357.114 357.114 0 01-2.043-1.907.605.605 0 11.855-.858c.76.763 1.426 1.335 1.996 1.907.237.238.285.62.047.858a.915.915 0 01-.475.143zm32.787-1.526a.617.617 0 01-.57-.38c-.095-.334.048-.668.38-.763.903-.334 1.854-.572 2.756-.763.333-.048.666.143.713.477.048.333-.142.667-.475.715-.855.19-1.71.428-2.613.762-.096-.047-.143-.047-.19-.047zm13.638-.238c-.047 0-.095 0-.19-.047a17.89 17.89 0 00-2.661-.62c-.333-.048-.523-.381-.475-.715.047-.334.38-.524.713-.477.902.143 1.853.382 2.756.668a.612.612 0 01.427.762c-.047.286-.285.43-.57.43zm-8.22-.905c-.333 0-.57-.239-.618-.572-.048-.334.237-.62.57-.668.95-.095 1.9-.095 2.851-.047.333 0 .57.286.57.62 0 .333-.285.571-.618.571a17.141 17.141 0 00-2.708.048l-.048.048zM55.85 51.708a.58.58 0 01-.428-.19 77.215 77.215 0 00-1.995-1.907.656.656 0 01-.048-.858.651.651 0 01.856-.047 80.253 80.253 0 011.995 1.954.605.605 0 010 .858c-.047.142-.19.19-.38.19zm-4.086-3.765a.538.538 0 01-.38-.143 15.494 15.494 0 00-1.949-1.43l-.237-.143c-.285-.19-.38-.572-.19-.81.19-.238.57-.381.807-.19l.238.142c.665.43 1.33.906 2.09 1.525.238.191.286.572.096.858-.143.096-.285.19-.475.19zm-38.347-.238c-.19 0-.333-.096-.475-.239-.19-.238-.143-.62.095-.858.76-.62 1.52-1.143 2.28-1.668.286-.19.666-.143.856.143.19.286.142.668-.143.858-.712.524-1.473 1.049-2.185 1.62a.764.764 0 01-.428.144zm33.69-2.812c-.095 0-.19-.048-.285-.096-.808-.476-1.616-.858-2.424-1.239-.285-.143-.427-.477-.285-.81.143-.286.476-.429.808-.286.808.381 1.663.81 2.519 1.287.285.143.38.524.237.81-.142.19-.38.334-.57.334zm-29.08-.334c-.191 0-.429-.095-.524-.286-.19-.286-.047-.667.238-.81.808-.477 1.663-.953 2.518-1.335.285-.143.666 0 .808.286.143.286 0 .667-.285.81-.808.382-1.616.81-2.423 1.287-.143 0-.238.048-.333.048zm24.043-2.05c-.047 0-.142 0-.19-.047a27.88 27.88 0 00-2.614-.858.612.612 0 01-.427-.762.61.61 0 01.76-.43c.903.239 1.806.572 2.709.906a.547.547 0 01.332.763.597.597 0 01-.57.429zm-19.055-.333a.617.617 0 01-.57-.381c-.095-.334.048-.668.38-.763.903-.333 1.806-.62 2.709-.858.332-.095.665.096.713.43.095.333-.095.666-.428.714-.855.238-1.758.477-2.614.81-.047 0-.095.048-.19.048zm13.733-1.192h-.095c-.903-.142-1.806-.285-2.709-.333a.668.668 0 01-.57-.667.667.667 0 01.666-.572c.95.095 1.9.19 2.803.38.333.049.523.382.475.716-.047.286-.332.476-.57.476zm-8.316-.19c-.285 0-.57-.238-.57-.524-.047-.334.19-.62.523-.668.95-.143 1.9-.19 2.851-.238.333 0 .618.238.618.572 0 .334-.238.62-.57.62-.903.047-1.806.095-2.709.238h-.143z" fill="#C3C3E1"/><path d="M11.28 48.944c-.333.286-.666.62-1.046.953" stroke="#C3C3E1" stroke-width="2.526" stroke-miterlimit="10" stroke-linecap="round"/><path opacity=".5" d="M85.217 66.388c.333.238.618.381.903.476.142.048.285.096.428.096h.522c.095 0 .143.047.19.143v.095a.81.81 0 01-.617.477c-.238.047-.523.047-.76-.048a1.341 1.341 0 01-.903-1.096c0-.096.047-.143.142-.143h.095z" fill="#9B643D"/><path d="M72.625 57.666c-1.046 2.43-.285 3.384-3.041 3.098-1.616-.143-4.182-.43-5.465 1.763-1.425 2.478.523 4.242-.38 5.576-.998 1.478-2.66 0-4.514 1.097-3.564 2.144-2.661 11.057 8.838 11.39 11.5.334 13.21-8.006 13.21-8.006s2.566-8.484 1.663-13.727c-.855-5.195-9.266-3.574-10.311-1.191z" fill="#3A312E"/><path d="M72.102 62.623c1.188 5.576 4.704 7.864 9.266 7.768 4.562-.095 4.847-13.679 2.709-15.537-1.378-1.192-3.041-1.859-4.847-1.811-4.61.095-8.316 4.003-7.128 9.58z" fill="#3A312E"/><path d="M81.238 83.476c.462-2.858-1.473-5.551-4.322-6.015-2.85-.464-5.535 1.477-5.997 4.335-.463 2.858 1.472 5.551 4.322 6.015 2.85.464 5.534-1.477 5.997-4.335z" fill="#8A8BC3"/><path d="M82.651 75.92s6.985 1.287 14.446-1.001c7.46-2.288 11.926-7.626 15.063-8.722a26.682 26.682 0 014.989-1.24c1.283-.19 1.521.763-.285 1.097-.475.095-.903.524-1.188.763-.903.762-.19 1.763-.95 2.526-1.046.953-3.612.476-3.612.476s-5.844 9.199-12.544 13.012c-6.653 3.765-14.921 3.288-14.921 3.288l-.998-10.2z" fill="#9B643D"/><path d="M108.928 66.054l9.409 1.287 1.473-.334c.19-.047.238-.333.048-.429l-1.331-.715-9.408-1.286-.191 1.477z" fill="#E3646A"/><path d="M110.782 66.864s1.995-.953 3.183-1.096c1.141-.19 1.331.524.618.81-.713.286-1.093.334-1.378 1.001-.238.667-.19 1.287-1.758 1.335-1.521.047-.665-2.05-.665-2.05z" fill="#9B643D"/><path d="M94.293 75.634s1.616 7.054-2.994 10.39c-4.609 3.336-9.076 2.574-9.076 2.574l-.19-13.155s5.94 1.43 12.26.19z" fill="#A6A7DC"/><path d="M88.306 84.594c-.19-4.146-3.85-7.244-5.75-9.294-.76-.81-1.615-1.191-3.041-1.43-1.426-.238-2.851.048-4.134.763-3.279 1.859-6.272 8.007-6.985 14.012-.57 4.719-5.845 17.111-8.934 24.069.476-.048.903-.143 1.378-.191a40.541 40.541 0 0025.422-14.822c1.188-5.147 2.234-9.58 2.044-13.107z" fill="#A6A7DC"/><path d="M79.467 64.481l4.752.19s-1.378 5.72-1.568 7.77c-.237 2.573.57 3.479 1.473 4.718-1.045.048-2.376.19-3.991-.524-2.234-1.001-2.519-2.288-4.514-2.097.522-.334 1.472-.953 1.9-1.86 1.378-3.002 1.948-8.197 1.948-8.197z" fill="url(#prefix__paint0_radial)"/><path d="M78.945 63.147c.047 4.05 2.47 7.292 5.417 7.244 3.801-.047 4.181-3.24 3.849-7.34-.333-4.003-.38-7.435-4.895-6.91-2.946.428-4.371 3.002-4.371 7.006z" fill="#9B643D"/><path d="M85.265 66.388c-.143-.048-.285.095-.333.286-.095.715.237 1.334.76 1.525.57.19 1.14-.143 1.473-.763.095-.143.048-.381-.095-.429l-1.805-.62z" fill="#6D3816"/><path d="M87.07 67.007l-1.805-.62c-.095 0-.143 0-.19.048.19.239.427.525.807.668.523.238 1.046.238 1.33 0-.047-.048-.094-.096-.142-.096z" fill="#fff"/><path d="M88.116 61.765c.047 1.334.617 1.954.998 2.192.38.238.57.953-.048 1.43-.19.143-.808.476-.808 1l-1.805-.095-.143-4.575 1.806.048z" fill="#9B643D"/><path d="M86.705 64c.21-.006.37-.394.36-.867-.01-.474-.19-.854-.4-.85-.209.006-.37.393-.36.867.01.474.19.854.4.85zM87.593 54.091c1.235-.047 2.47.524 2.518 2.336.048 1.286-.807 2.526-2.518 3.955-3.849 3.146-8.79 2.908-8.79 2.908s-.856-5.91 2.375-8.103c.808-.524.048-1.668 1.806-1.191 2.376.667 3.849.143 4.609.095z" fill="#3A312E"/><path d="M80.37 66.483h-1.378c-.855 0-1.568-.667-1.568-1.525v-.048c0-.858.665-1.573 1.52-1.573h1.759c.237 0 .427.191.427.382v1.954c.048.429-.332.762-.76.81z" fill="#9B643D"/><path d="M83.507 61.193h.047v.095h-.047v-.095z" fill="url(#prefix__paint1_radial)"/><path d="M62.409 92.41c4.846-4.813 5.179-3.479 12.022-6.767 6.842-3.289 2.185-11.058-.38-9.961 0 0-10.36 5.147-16.3 13.488-5.511 7.72-6.51 13.297-6.984 14.679l1.9 1.573c-.047 0 4.04-7.292 9.742-13.011z" fill="#9B643D"/><path d="M64.404 82.116s1.949 7.769 8.22 7.769c4.515 0 8.269-3.099 9.172-7.436.855-4.337-6.178-7.911-6.178-7.911s-5.036 2.287-11.214 7.578z" fill="#A6A7DC"/><path d="M6.005 62.194c2.09.571 2.376 1.954 1.9 2.001-.474 0-1.9-.572-1.9-.572s.95 1.049.143 1.668c0 0 .57 2.24-.143 2.622-.713.381-.998-.19-.998-.19s1.33.857.57 2.62c-.522 1.192.19 6.006.19 6.006s-.76.905-2.09.905c-1.33 0-2.519-.095-2.519-.095s2.471-7.197 1.948-9.342c-.712-2.954.048-4.432.428-4.956.333-.477 1.236-1.001 2.471-.667z" fill="#E0BB95"/><path d="M5.815 76.349c.903 4.623 3.041 9.198 6.225 8.531 3.231-.62 2.993-8.102 8.838-11.01 2.186-1.096 5.75-1.62 5.75-1.62s.903 8.102.57 12.296c-.665 8.007-8.79 14.87-16.869 14.06-5.607-.572-12.545-8.674-9.17-21.4 1.472-.333 4.656-.857 4.656-.857z" fill="#8B8CC7"/><path d="M33.233 100.084c9.29 0 16.821-6.487 16.821-14.49 0-8.001-7.531-14.488-16.821-14.488-9.29 0-16.822 6.487-16.822 14.489s7.532 14.489 16.822 14.489z" fill="url(#prefix__paint2_radial)"/><path d="M16.506 86.548s.048 0 0 0c.333.858.666 1.716 1.093 2.621 4.8 10.581 14.018 18.731 25.28 22.115l5.322-3.002 1.853-22.973H16.411l.095 1.24z" fill="url(#prefix__paint3_radial)"/><path d="M25.345 60.811s11.927 4.1 11.927 2.812c0-1.287 1.33-4.146 1.615-5.719.238-1.43-.76-2.478-2.043-2.621l-8.316-1.049c-1.282-.143-2.47.763-2.613 2.05l-.57 4.527z" fill="#9B643D"/><path d="M29.907 57.713c.76-.047 3.278-1.62 4.799-1.668 1.853-.047 2.186.62 2.186.62s1.9-4.576-2.947-4.337c-1.33.047-2.708.19-3.706-.096-1.045-.286-2.328-1.143-4.134-.81-2.138.381-3.611 3.05-2.138 5.29 1.425 2.193 4.847 1.097 5.94 1.001z" fill="#9B643D"/><path d="M37.51 61.002l-9.742-.477s.19 7.15.19 9.39c0 1.954-1.33 2.287-1.33 2.287s.808 2.288 4.324 2.288 8.315-2.478 8.315-2.478-1.853-.382-2.233-3.146c-.285-2.383.475-7.864.475-7.864z" fill="url(#prefix__paint4_radial)"/><path d="M36.892 65.005a1.999 1.999 0 001.995-2.001 1.999 1.999 0 00-1.995-2.002 1.999 1.999 0 00-1.996 2.002c0 1.105.893 2.002 1.996 2.002z" fill="#E0BB95"/><path d="M29.716 70.296c3.517.429 6.748-2.05 7.176-5.577l.902-7.196-9.503-1.24c-1.33-.19-2.519.763-2.661 2.098l-.713 5.671c-.38 3.05 1.758 5.862 4.8 6.244z" fill="#9B643D"/><path d="M27.436 64.958l4.324.572c1.948.238 3.706-1.144 3.944-3.05l.475-3.861c.095-.715-.38-1.907-1.093-2.002 0 0-4.42 1.335-6.89.286-1.853-.762-2.424-.238-2.519.858l-.522 4.29c-.19 1.382.855 2.716 2.28 2.907z" fill="#E0BB95"/><path d="M26.01 64.29l3.041 1.05.048-.24c.047-.237-.048-.428-.238-.571l-.855-.715c-.19-.143-.19-.429-.048-.62l.95-1.144c.238-.285.38-.62.428-.953l.143-1.334-3.041-.381-.428 4.909z" fill="url(#prefix__paint5_radial)"/><path d="M31.38 66.15c-.286.428-.808.667-1.284.714-.475.048-1.045-.047-1.425-.476a.145.145 0 010-.191c.047-.048.047-.048.095-.048h.048c.427 0 .807.048 1.188 0 .38-.047.76-.19 1.235-.238.095 0 .143.048.19.095-.047.096-.047.096-.047.143z" fill="#9B643D" stroke="#9B643D" stroke-width="4.832" stroke-miterlimit="10"/><path d="M31.427 65.673a1.581 1.581 0 01-.475.667c-.238.19-.523.286-.76.334-.285.047-.57.047-.808-.048-.238-.095-.523-.238-.713-.477-.047-.047-.047-.143.048-.19.047 0 .047-.048.095 0h.047c.19.047.428.047.618.047s.428 0 .618-.047c.19-.048.38-.048.57-.143.19-.048.38-.143.57-.286.095-.048.143 0 .19.047.048 0 .048.048 0 .096z" fill="#BF8F68"/><path d="M32.042 61.966c.057-.444-.088-.828-.322-.858-.234-.03-.47.306-.526.75-.056.444.088.828.322.858.235.03.47-.306.526-.75zM27.867 61.432c.056-.444-.088-.828-.323-.857-.234-.03-.47.305-.526.75-.056.443.088.827.323.857.234.03.47-.306.526-.75z" fill="#33312D"/><path d="M37.557 60.907l-1.806.953s.19-1.43-.285-1.907c-.855-.81-1.52-1.525-.855-3.288l.713-.667 2.708.858-.475 4.05z" fill="#9B643D"/><path d="M4.912 69.629h9.409c.285 0 .522-.239.57-.525V63.72c0-.286-.238-.525-.523-.572H4.96c-.285 0-.523.238-.57.524v5.386c0 .333.237.572.522.572z" fill="#E3646A"/><path d="M9.664 68.818a2.427 2.427 0 002.423-2.43 2.427 2.427 0 00-2.423-2.431 2.427 2.427 0 00-2.423 2.43 2.427 2.427 0 002.423 2.431z" fill="#C3C3E1"/><path d="M7.858 66.388c0 1 .808 1.81 1.758 1.81.476 0 .903-.19 1.188-.476.38-.334.57-.81.57-1.334 0-1.001-.807-1.812-1.758-1.812-.522 0-.997.239-1.33.572-.238.382-.428.763-.428 1.24z" fill="#605D5A"/><path d="M16.269 68.866c-.095-.286-.428-.477-.713-.334-.285.096-.665.191-.95.096-1.046-.334-.903-2.526-.903-2.526s-.76-.048-.523-.858c.38-1.24 2.661-1.43 2.661-1.43-.38-.238-1.33-.381-2.28-.381-.333 0-.523-.382-.143-.62.475-.334 1.663-.524 2.898 0 2.329 1.001 3.374 4.099 3.992 6.434.618 2.383 4.039 10.962 4.039 10.962L19.5 82.07s-.523-7.15-1.758-10.963c-1.188-.667-1.378-2.05-1.473-2.24z" fill="#E0BB95"/><path d="M23.254 77.54s4.657 7.817 7.888 7.578c3.184-.238 1.045-8.864 5.75-10.437 2.898-.954 9.075 1.81 8.41 9.818-.665 8.007-5.702 14.393-14.683 13.25-5.274-.668-11.737-5.767-11.5-18.826l4.135-1.383z" fill="#8B8CC7"/><path d="M54.568 113a40.73 40.73 0 0014.92-2.812c-.094-3.718-.237-8.055-.427-9.675-1.806-14.68-9.931-18.54-12.497-18.493h-5.75c-2.566-.095-10.691 3.813-12.497 18.493-.19 1.525-.333 5.386-.428 8.912C42.926 111.713 48.581 113 54.57 113z" fill="#EE8F94"/><path d="M52.477 81.115h1.664c4.799 0 8.695-3.908 8.695-8.722v-.953c0-5.29-4.276-9.532-9.503-9.532-5.275 0-9.504 4.289-9.504 9.532v.953c-.047 4.814 3.849 8.722 8.648 8.722z" fill="#594539"/><path d="M50.862 80.495v-3.527h5.464v3.67c0 1.287 2.329 1.907 2.614 2.05-.143.667-1.568 2.764-5.322 2.764-3.707 0-5.085-2.097-5.18-2.812.38-.19 2.376-.667 2.424-2.145z" fill="url(#prefix__paint6_linear)"/><path d="M50.197 77.779c-.523-.572-1.14-.906-1.901-.954-.76 0-1.378.239-1.9.81a3.199 3.199 0 00-.856 2.05c0 .81.237 1.525.76 2.145.523.572 1.14.905 1.9.905.713.048 1.379-.238 1.949-.81.523-.572.808-1.24.855-2.05-.047-.81-.285-1.477-.807-2.096z" fill="#594539"/><path d="M50.244 83.689c-.095-.668-.38-1.192-.903-1.573-.523-.43-1.045-.572-1.663-.477-.618.048-1.093.381-1.425.906-.333.524-.428 1.096-.333 1.763.095.667.38 1.192.903 1.62.475.382 1.045.573 1.615.477.618-.095 1.093-.381 1.426-.905.38-.572.475-1.144.38-1.811z" fill="#594539"/><path d="M51.004 88.169c.048-.715-.095-1.287-.427-1.86-.333-.523-.76-.857-1.33-.905-.523-.095-.999.048-1.426.43-.428.38-.618.953-.713 1.62-.048.667.142 1.239.475 1.81.333.573.76.859 1.33.954.523.095.998-.048 1.426-.477.38-.38.618-.905.665-1.572z" fill="#594539"/><path d="M50.434 89.36c-.427-.238-.855-.238-1.33-.095-.428.19-.808.572-1.046 1.144a2.512 2.512 0 00-.142 1.668c.142.572.427.953.855 1.239.428.238.855.286 1.33.095.476-.19.808-.572 1.046-1.144a2.513 2.513 0 00.142-1.668c-.142-.524-.427-.953-.855-1.239z" fill="#594539"/><path d="M49.436 92.553c-1.045-.19-1.805.286-2.28 1.43-.476 1.096-.38 2.145.237 3.098.285.477.38.906.19 1.335-.095.238-.19.381-.333.524l.713-.19c.475-.191.76-.573.855-1.05.096-.38.286-.666.618-.81.475-.238.76-.476.95-.714.428-.525.618-1.192.523-2.002-.047-.906-.57-1.43-1.473-1.62z" fill="#594539"/><path d="M53.57 81.067c3.327 0 6.035-2.716 6.035-6.053v-1.382c0-3.336-2.708-6.053-6.035-6.053-3.326 0-6.035 2.717-6.035 6.053v1.382c0 3.337 2.709 6.053 6.035 6.053z" fill="#BE906B"/><path d="M57.324 73.966h-3.849v4.718h3.85v-4.718z" fill="url(#prefix__paint7_radial)"/><path d="M56.326 75.586c.289 0 .523-.405.523-.905s-.234-.906-.523-.906c-.288 0-.522.405-.522.906 0 .5.234.905.522.905zM50.814 75.586c.289 0 .523-.405.523-.905s-.234-.906-.523-.906c-.288 0-.522.405-.522.906 0 .5.234.905.522.905z" fill="#33312D"/><path d="M48.438 72.917h-.57a1.9 1.9 0 00-1.378.572c-.38.381-.57.858-.57 1.382 0 .572.19 1.001.57 1.43.38.381.808.572 1.378.572h.523v-3.956h.047zM58.702 73.013h.57a1.9 1.9 0 011.378.571c.38.382.57.858.57 1.383 0 .524-.19 1-.57 1.382-.38.381-.807.572-1.378.572h-.57v-3.909z" fill="#BE906B"/><path opacity=".5" d="M54.568 78.589c-.19.19-.427.286-.665.333a2.294 2.294 0 01-.808 0 1.42 1.42 0 01-.38-.19c-.095-.096-.238-.143-.285-.286a1.053 1.053 0 01-.285-.715c0-.095.047-.143.142-.143.048 0 .048 0 .095.048.19.143.333.286.476.38.142.096.285.144.475.191.332.096.712.096 1.14.144.095 0 .143.047.143.142 0 .048 0 .048-.048.096z" fill="#9A6541"/><path d="M52.858 76.063c0 .429.38 1.716.807 1.858 0 0 0-.142.048-.333.047-.286 1.045-.667 1.045-1.096 0-.477-1.045-.763-1.045-1.859v-.81c-.333.143-.855 1.906-.855 2.24z" fill="#BE906B"/><path d="M66.02 105.041c-8.173-3.909-16.394 3.908-24.567 0V92.839c8.173 3.909 16.394-3.908 24.567 0v12.202z" fill="#FCFCFB"/><path d="M66.78 97.51s1.14-.334.618-.953c-.523-.62-3.279-.667-3.374 0-.095.429.618.667.618.667s-.665.286-.618.906c.048.62.095 2.383.57 2.669.476.238 1.14.238 1.616.238.76 0 1.093-2.24 1.093-2.764.047-.524-.523-.763-.523-.763zM40.503 97.51s-1.14-.334-.618-.953c.523-.62 3.279-.667 3.374 0 .095.429-.618.667-.618.667s.665.286.618.906c-.048.572-.095 2.383-.57 2.669-.475.238-1.14.238-1.616.238-.76 0-1.093-2.24-1.093-2.764 0-.524.523-.763.523-.763z" fill="#BE906B"/><path d="M57.752 67.007c.523 1.24.142 3.384-2.614 5.005-1.378.81-4.751.953-5.892 1-.665.048-.95.525-.855 1.001.095.382.523.668.523.668s-.666.572-1.569.238c-1.71-.572-2.043-2.192-2.09-2.812-.143-1.859.285-5.004 3.42-6.768 2.995-1.62 7.461-2.145 9.077 1.668z" fill="url(#prefix__paint8_linear)"/><defs><radialGradient id="prefix__paint0_radial" cx="0" cy="0" r="1" gradientUnits="userSpaceOnUse" gradientTransform="matrix(-4.68587 -.26452 .26532 -4.69989 83.933 69.454)"><stop stop-color="#644539"/><stop offset="1" stop-color="#9B643D"/></radialGradient><radialGradient id="prefix__paint1_radial" cx="0" cy="0" r="1" gradientUnits="userSpaceOnUse" gradientTransform="matrix(.03197 .00737 -.00779 .0338 83.54 61.278)"><stop offset="0" stop-color="#9B643D"/><stop offset=".882" stop-color="#BA8A63" stop-opacity=".118"/><stop offset="1" stop-color="#BF8F68" stop-opacity="0"/></radialGradient><radialGradient id="prefix__paint2_radial" cx="0" cy="0" r="1" gradientUnits="userSpaceOnUse" gradientTransform="matrix(9.31704 0 0 9.34509 32.09 87.413)"><stop stop-color="#6264A7"/><stop offset=".114" stop-color="#6C6EAF"/><stop offset=".377" stop-color="#7D7FBC"/><stop offset=".661" stop-color="#8889C4"/><stop offset="1" stop-color="#8B8CC7"/></radialGradient><radialGradient id="prefix__paint3_radial" cx="0" cy="0" r="1" gradientUnits="userSpaceOnUse" gradientTransform="matrix(15.4213 0 0 15.4677 34.37 89.263)"><stop stop-color="#6264A7"/><stop offset="1" stop-color="#8B8CC7"/></radialGradient><radialGradient id="prefix__paint4_radial" cx="0" cy="0" r="1" gradientUnits="userSpaceOnUse" gradientTransform="matrix(3.5396 0 0 4.03274 36.849 63.228)"><stop stop-color="#9B643D"/><stop offset="1" stop-color="#E0BB95"/></radialGradient><radialGradient id="prefix__paint5_radial" cx="0" cy="0" r="1" gradientUnits="userSpaceOnUse" gradientTransform="matrix(2.31199 .28172 -.28254 2.31874 28.994 63.204)"><stop stop-color="#9B643D"/><stop offset=".205" stop-color="#AE7C56"/><stop offset=".541" stop-color="#C99E78"/><stop offset=".819" stop-color="#DAB38D"/><stop offset="1" stop-color="#E0BB95"/></radialGradient><radialGradient id="prefix__paint7_radial" cx="0" cy="0" r="1" gradientUnits="userSpaceOnUse" gradientTransform="matrix(3.02979 -.00456 .00338 2.24757 53.667 76.162)"><stop stop-color="#744D2C"/><stop offset="1" stop-color="#BE906B" stop-opacity="0"/></radialGradient><linearGradient id="prefix__paint6_linear" x1="53.729" y1="84.143" x2="53.624" y2="79.1" gradientUnits="userSpaceOnUse"><stop stop-color="#BE906B"/><stop offset=".992" stop-color="#9F7757"/></linearGradient><linearGradient id="prefix__paint8_linear" x1="47.907" y1="77.3" x2="50.589" y2="71.588" gradientUnits="userSpaceOnUse"><stop stop-color="#BF8F68"/><stop offset=".017" stop-color="#BC8D66"/><stop offset=".21" stop-color="#987356"/><stop offset=".406" stop-color="#7D5F49"/><stop offset=".602" stop-color="#695040"/><stop offset=".799" stop-color="#5D483B"/><stop offset="1" stop-color="#594539"/></linearGradient></defs></svg>